<svg width="992" height="226" viewBox="0 0 992 226" fill="none" xmlns="http://www.w3.org/2000/svg">
<g clip-path="url(#clip0_115_2)">
<rect width="992" height="226" rx="24" fill="#171717"/>
<path d="M827 158H714" stroke="url(#paint0_linear_115_2)" stroke-width="3" stroke-dasharray="6 6"/>
<g clip-path="url(#clip1_115_2)">
<path fill-rule="evenodd" clip-rule="evenodd" d="M55.9741 92.4269L131.29 39.0915C143.548 30.4114 159.751 36.4075 164.585 49.1598C158.714 48.5513 152.52 49.9422 147.001 53.8498L71.6851 107.185C63.7432 112.809 59.0227 121.936 59.0227 131.668V317.993C51.7663 317.98 45 312.223 45 303.969V113.645C45 105.211 49.0911 97.3011 55.9741 92.4269ZM59.0227 322C49.6955 321.979 41 314.579 41 303.969V113.645C41 103.914 45.7205 94.7867 53.6624 89.1625L128.979 35.8271C144.184 25.0593 164.527 33.4019 169.077 50.0296C177.279 52.3762 184.244 58.6736 186.889 67.3267C194.994 69.9039 201.776 76.365 204.173 85.1264C214.659 88.1264 223.124 97.5837 223.124 110.165V291.227C223.124 297.066 220.292 302.542 215.527 305.916L122.522 371.778C110.604 380.218 94.1262 371.699 94.1195 357.097C85.0676 357.077 76.6108 350.106 76.1194 339.997C67.1533 339.507 59.0274 332.253 59.0227 322ZM98.1195 356.645V357.088C98.1195 368.449 110.939 375.079 120.21 368.514L213.215 302.652C216.921 300.028 219.124 295.768 219.124 291.227V110.165C219.124 100.289 212.96 92.6885 204.985 89.6141C205.062 90.4417 205.101 91.2848 205.101 92.1424V273.204C205.101 279.043 202.269 284.519 197.504 287.894L104.499 353.755C102.47 355.192 100.309 356.137 98.1195 356.645ZM200.805 88.4536C201 89.6425 201.101 90.8737 201.101 92.1424V273.204C201.101 277.745 198.899 282.005 195.192 284.629L102.188 350.491C100.886 351.412 99.5153 352.074 98.1195 352.499V329.108L180.43 270.82C185.195 267.445 188.027 261.969 188.027 256.13V90.1138C192.2 88.1879 196.633 87.7244 200.805 88.4536ZM199.682 84.2567C197.534 78.5916 193.143 74.2598 187.851 71.9557C187.967 72.9697 188.027 74.0079 188.027 75.0683V85.7731C191.864 84.3159 195.842 83.8587 199.682 84.2567ZM184.027 87.6976V75.0683C184.027 73.5153 183.875 72.0186 183.587 70.5869C179.184 69.648 174.447 70.0409 170.005 72.0911V97.5108L182.098 88.9467C182.733 88.4973 183.376 88.0812 184.027 87.6976ZM166.005 100.343V74.4593L91.0709 127.524C84.1879 132.398 80.0968 140.308 80.0968 148.742V306.184L94.1195 296.254V166.765C94.1195 157.033 98.84 147.906 106.782 142.282L166.005 100.343ZM98.1195 293.421V166.765C98.1195 158.331 102.211 150.421 109.094 145.546L166.005 105.245V238.107C166.005 242.649 163.802 246.908 160.095 249.533L98.1195 293.421ZM98.1195 298.322L162.407 252.797C167.172 249.422 170.005 243.946 170.005 238.107V102.412L184.027 92.482V256.13C184.027 260.671 181.824 264.931 178.118 267.555L98.1195 324.206V298.322ZM94.1195 301.155L80.0968 311.085V335.677C81.8185 335.285 83.5185 334.546 85.1136 333.417L94.1195 327.039V301.155ZM94.1195 331.94L87.4252 336.681C85.1086 338.322 82.6197 339.321 80.113 339.76C80.4803 347.641 87.0685 353.077 94.1195 353.09V331.94ZM169.889 54.5173C175.293 56.6006 179.865 60.7625 182.252 66.3023C178.23 65.7915 174.039 66.2181 170.005 67.7504V57.0456C170.005 56.1879 169.965 55.3448 169.889 54.5173ZM166.005 57.0456V69.6749C165.354 70.0585 164.71 70.4746 164.076 70.924L88.7593 124.259C80.8173 129.883 76.0968 139.011 76.0968 148.742V309.016L67.0909 315.394C65.7896 316.315 64.4185 316.977 63.0227 317.402V131.668C63.0227 123.234 67.1138 115.324 73.9968 110.45L149.313 57.1142C154.461 53.469 160.304 52.4121 165.709 53.3568C165.903 54.5457 166.005 55.7768 166.005 57.0456ZM69.4025 318.658L76.0968 313.918V335.981C69.2102 335.494 63.0227 329.885 63.0227 321.991V321.548C65.2123 321.041 67.3735 320.095 69.4025 318.658Z" fill="white"/>
</g>
<path d="M391.202 111V81.9091H398.233V93.5852H409.696V81.9091H416.713V111H409.696V99.3097H398.233V111H391.202ZM431.322 111.412C429.04 111.412 427.071 110.962 425.413 110.062C423.766 109.153 422.497 107.861 421.607 106.185C420.726 104.499 420.286 102.496 420.286 100.176C420.286 97.9223 420.731 95.9527 421.621 94.267C422.511 92.572 423.766 91.2557 425.385 90.3182C427.004 89.3712 428.912 88.8977 431.109 88.8977C432.662 88.8977 434.083 89.1392 435.371 89.6222C436.659 90.1051 437.771 90.8201 438.709 91.767C439.646 92.714 440.375 93.8835 440.896 95.2756C441.417 96.6581 441.678 98.2443 441.678 100.034V101.767H422.714V97.733H435.214C435.205 96.9943 435.03 96.3362 434.689 95.7585C434.348 95.1809 433.879 94.7311 433.283 94.4091C432.696 94.0777 432.018 93.9119 431.251 93.9119C430.475 93.9119 429.779 94.0871 429.163 94.4375C428.548 94.7784 428.06 95.2472 427.7 95.8438C427.34 96.4309 427.151 97.0985 427.132 97.8466V101.952C427.132 102.842 427.307 103.623 427.658 104.295C428.008 104.958 428.505 105.474 429.149 105.844C429.793 106.213 430.56 106.398 431.45 106.398C432.066 106.398 432.625 106.312 433.126 106.142C433.628 105.972 434.059 105.721 434.419 105.389C434.779 105.058 435.049 104.651 435.229 104.168L441.607 104.352C441.341 105.782 440.759 107.027 439.859 108.088C438.969 109.139 437.8 109.958 436.351 110.545C434.902 111.123 433.226 111.412 431.322 111.412ZM452.171 81.9091V111H445.225V81.9091H452.171ZM463.538 81.9091V111H456.592V81.9091H463.538ZM478.144 111.412C475.853 111.412 473.883 110.943 472.235 110.006C470.597 109.059 469.333 107.742 468.442 106.057C467.562 104.362 467.121 102.397 467.121 100.162C467.121 97.9176 467.562 95.9527 468.442 94.267C469.333 92.572 470.597 91.2557 472.235 90.3182C473.883 89.3712 475.853 88.8977 478.144 88.8977C480.436 88.8977 482.401 89.3712 484.039 90.3182C485.687 91.2557 486.951 92.572 487.832 94.267C488.722 95.9527 489.167 97.9176 489.167 100.162C489.167 102.397 488.722 104.362 487.832 106.057C486.951 107.742 485.687 109.059 484.039 110.006C482.401 110.943 480.436 111.412 478.144 111.412ZM478.187 106.17C479.02 106.17 479.726 105.915 480.303 105.403C480.881 104.892 481.321 104.182 481.624 103.273C481.937 102.364 482.093 101.312 482.093 100.119C482.093 98.9072 481.937 97.8466 481.624 96.9375C481.321 96.0284 480.881 95.3182 480.303 94.8068C479.726 94.2955 479.02 94.0398 478.187 94.0398C477.325 94.0398 476.596 94.2955 475.999 94.8068C475.412 95.3182 474.962 96.0284 474.65 96.9375C474.347 97.8466 474.195 98.9072 474.195 100.119C474.195 101.312 474.347 102.364 474.65 103.273C474.962 104.182 475.412 104.892 475.999 105.403C476.596 105.915 477.325 106.17 478.187 106.17ZM513.634 89.1818V94.2955H499.87V89.1818H513.634ZM502.754 83.9545H509.7V104.139C509.7 104.565 509.766 104.911 509.898 105.176C510.04 105.432 510.244 105.616 510.509 105.73C510.774 105.834 511.092 105.886 511.461 105.886C511.726 105.886 512.005 105.863 512.299 105.815C512.602 105.759 512.829 105.711 512.981 105.673L514.032 110.688C513.701 110.782 513.232 110.901 512.626 111.043C512.029 111.185 511.314 111.275 510.481 111.312C508.852 111.388 507.455 111.199 506.29 110.744C505.135 110.28 504.25 109.561 503.634 108.585C503.028 107.61 502.735 106.384 502.754 104.906V83.9545ZM524.593 98.5568V111H517.647V81.9091H524.366V93.1875H524.607C525.1 91.8428 525.905 90.7917 527.022 90.0341C528.149 89.2765 529.527 88.8977 531.156 88.8977C532.69 88.8977 534.025 89.2386 535.161 89.9205C536.298 90.5928 537.178 91.5445 537.803 92.7756C538.438 94.0066 538.75 95.446 538.741 97.0938V111H531.795V98.4574C531.804 97.2453 531.501 96.2983 530.886 95.6165C530.27 94.9347 529.404 94.5938 528.286 94.5938C527.557 94.5938 526.913 94.7547 526.354 95.0767C525.805 95.3892 525.374 95.839 525.062 96.4261C524.759 97.0133 524.603 97.7235 524.593 98.5568ZM553.276 111.412C550.993 111.412 549.024 110.962 547.366 110.062C545.719 109.153 544.45 107.861 543.56 106.185C542.679 104.499 542.239 102.496 542.239 100.176C542.239 97.9223 542.684 95.9527 543.574 94.267C544.464 92.572 545.719 91.2557 547.338 90.3182C548.957 89.3712 550.866 88.8977 553.062 88.8977C554.616 88.8977 556.036 89.1392 557.324 89.6222C558.612 90.1051 559.724 90.8201 560.662 91.767C561.599 92.714 562.329 93.8835 562.849 95.2756C563.37 96.6581 563.631 98.2443 563.631 100.034V101.767H544.668V97.733H557.168C557.158 96.9943 556.983 96.3362 556.642 95.7585C556.301 95.1809 555.832 94.7311 555.236 94.4091C554.649 94.0777 553.972 93.9119 553.205 93.9119C552.428 93.9119 551.732 94.0871 551.116 94.4375C550.501 94.7784 550.013 95.2472 549.653 95.8438C549.294 96.4309 549.104 97.0985 549.085 97.8466V101.952C549.085 102.842 549.26 103.623 549.611 104.295C549.961 104.958 550.458 105.474 551.102 105.844C551.746 106.213 552.513 106.398 553.403 106.398C554.019 106.398 554.578 106.312 555.08 106.142C555.581 105.972 556.012 105.721 556.372 105.389C556.732 105.058 557.002 104.651 557.182 104.168L563.56 104.352C563.295 105.782 562.712 107.027 561.812 108.088C560.922 109.139 559.753 109.958 558.304 110.545C556.855 111.123 555.179 111.412 553.276 111.412ZM567.178 111V89.1818H573.925V93.1591H574.153C574.55 91.7197 575.199 90.6496 576.099 89.9489C576.998 89.2386 578.045 88.8835 579.238 88.8835C579.56 88.8835 579.891 88.9072 580.232 88.9545C580.573 88.9924 580.89 89.054 581.184 89.1392V95.1761C580.853 95.0625 580.417 94.9725 579.877 94.9062C579.347 94.84 578.873 94.8068 578.457 94.8068C577.633 94.8068 576.889 94.9915 576.227 95.3608C575.573 95.7206 575.057 96.2273 574.678 96.8807C574.309 97.5246 574.124 98.2822 574.124 99.1534V111H567.178ZM593.08 111.412C590.798 111.412 588.828 110.962 587.171 110.062C585.523 109.153 584.254 107.861 583.364 106.185C582.484 104.499 582.043 102.496 582.043 100.176C582.043 97.9223 582.488 95.9527 583.379 94.267C584.269 92.572 585.523 91.2557 587.143 90.3182C588.762 89.3712 590.67 88.8977 592.867 88.8977C594.42 88.8977 595.841 89.1392 597.129 89.6222C598.416 90.1051 599.529 90.8201 600.467 91.767C601.404 92.714 602.133 93.8835 602.654 95.2756C603.175 96.6581 603.435 98.2443 603.435 100.034V101.767H584.472V97.733H596.972C596.963 96.9943 596.788 96.3362 596.447 95.7585C596.106 95.1809 595.637 94.7311 595.04 94.4091C594.453 94.0777 593.776 93.9119 593.009 93.9119C592.233 93.9119 591.537 94.0871 590.921 94.4375C590.306 94.7784 589.818 95.2472 589.458 95.8438C589.098 96.4309 588.909 97.0985 588.89 97.8466V101.952C588.89 102.842 589.065 103.623 589.415 104.295C589.766 104.958 590.263 105.474 590.907 105.844C591.551 106.213 592.318 106.398 593.208 106.398C593.824 106.398 594.382 106.312 594.884 106.142C595.386 105.972 595.817 105.721 596.177 105.389C596.537 105.058 596.807 104.651 596.987 104.168L603.364 104.352C603.099 105.782 602.517 107.027 601.617 108.088C600.727 109.139 599.558 109.958 598.109 110.545C596.66 111.123 594.984 111.412 593.08 111.412Z" fill="white"/>
<path d="M487.202 153V131.182H493.807V135.188H494.048C494.503 133.862 495.27 132.815 496.349 132.048C497.429 131.281 498.717 130.898 500.213 130.898C501.728 130.898 503.026 131.286 504.105 132.062C505.185 132.839 505.871 133.881 506.165 135.188H506.392C506.799 133.89 507.595 132.853 508.778 132.077C509.962 131.291 511.359 130.898 512.969 130.898C515.033 130.898 516.709 131.561 517.997 132.886C519.285 134.203 519.929 136.011 519.929 138.312V153H512.983V139.903C512.983 138.814 512.704 137.986 512.145 137.418C511.586 136.84 510.862 136.551 509.972 136.551C509.015 136.551 508.262 136.864 507.713 137.489C507.173 138.104 506.903 138.933 506.903 139.974V153H500.227V139.832C500.227 138.819 499.953 138.019 499.403 137.432C498.854 136.845 498.13 136.551 497.23 136.551C496.624 136.551 496.089 136.698 495.625 136.991C495.161 137.276 494.796 137.683 494.531 138.213C494.276 138.743 494.148 139.368 494.148 140.088V153H487.202ZM527.699 161.182C526.866 161.182 526.08 161.116 525.341 160.983C524.602 160.86 523.968 160.694 523.438 160.486L524.972 155.443C525.653 155.67 526.269 155.803 526.818 155.841C527.377 155.879 527.855 155.789 528.253 155.571C528.66 155.363 528.973 154.989 529.19 154.449L529.46 153.795L521.705 131.182H528.977L532.997 146.75H533.224L537.301 131.182H544.616L536.392 155.088C535.994 156.281 535.431 157.332 534.702 158.241C533.982 159.16 533.049 159.88 531.903 160.401C530.767 160.921 529.366 161.182 527.699 161.182ZM562.82 140.557V153H555.874V131.182H562.479V135.188H562.72C563.203 133.852 564.027 132.806 565.192 132.048C566.357 131.281 567.744 130.898 569.354 130.898C570.888 130.898 572.218 131.243 573.345 131.935C574.482 132.616 575.362 133.573 575.987 134.804C576.622 136.026 576.934 137.455 576.925 139.094V153H569.979V140.457C569.988 139.245 569.68 138.298 569.055 137.616C568.44 136.935 567.583 136.594 566.484 136.594C565.755 136.594 565.111 136.755 564.553 137.077C564.003 137.389 563.577 137.839 563.274 138.426C562.981 139.013 562.829 139.723 562.82 140.557ZM587.376 153.369C585.984 153.369 584.748 153.137 583.668 152.673C582.598 152.2 581.751 151.49 581.126 150.543C580.51 149.586 580.202 148.388 580.202 146.949C580.202 145.737 580.415 144.714 580.842 143.881C581.268 143.047 581.855 142.37 582.603 141.849C583.351 141.329 584.213 140.936 585.188 140.67C586.164 140.396 587.205 140.211 588.313 140.116C589.554 140.003 590.553 139.884 591.31 139.761C592.068 139.629 592.617 139.444 592.958 139.207C593.308 138.961 593.484 138.616 593.484 138.17V138.099C593.484 137.37 593.233 136.807 592.731 136.409C592.229 136.011 591.552 135.812 590.7 135.812C589.781 135.812 589.042 136.011 588.484 136.409C587.925 136.807 587.57 137.356 587.418 138.057L581.012 137.83C581.201 136.504 581.689 135.32 582.475 134.278C583.271 133.227 584.36 132.403 585.742 131.807C587.134 131.201 588.806 130.898 590.756 130.898C592.148 130.898 593.432 131.063 594.606 131.395C595.78 131.717 596.803 132.19 597.674 132.815C598.545 133.431 599.218 134.188 599.691 135.088C600.174 135.988 600.415 137.015 600.415 138.17V153H593.881V149.96H593.711C593.323 150.699 592.826 151.324 592.219 151.835C591.623 152.347 590.917 152.73 590.103 152.986C589.298 153.241 588.389 153.369 587.376 153.369ZM589.521 148.824C590.269 148.824 590.941 148.672 591.538 148.369C592.144 148.066 592.627 147.65 592.987 147.119C593.346 146.58 593.526 145.955 593.526 145.244V143.17C593.327 143.275 593.086 143.369 592.802 143.455C592.527 143.54 592.224 143.62 591.893 143.696C591.561 143.772 591.22 143.838 590.87 143.895C590.52 143.952 590.183 144.004 589.862 144.051C589.208 144.155 588.649 144.316 588.185 144.534C587.731 144.752 587.38 145.036 587.134 145.386C586.897 145.727 586.779 146.134 586.779 146.608C586.779 147.328 587.035 147.877 587.546 148.256C588.067 148.634 588.725 148.824 589.521 148.824ZM604.663 153V131.182H611.268V135.188H611.509C611.964 133.862 612.731 132.815 613.81 132.048C614.89 131.281 616.178 130.898 617.674 130.898C619.189 130.898 620.487 131.286 621.566 132.062C622.646 132.839 623.332 133.881 623.626 135.188H623.853C624.26 133.89 625.056 132.853 626.239 132.077C627.423 131.291 628.82 130.898 630.43 130.898C632.494 130.898 634.17 131.561 635.458 132.886C636.746 134.203 637.39 136.011 637.39 138.312V153H630.444V139.903C630.444 138.814 630.165 137.986 629.606 137.418C629.047 136.84 628.323 136.551 627.433 136.551C626.476 136.551 625.723 136.864 625.174 137.489C624.634 138.104 624.364 138.933 624.364 139.974V153H617.688V139.832C617.688 138.819 617.414 138.019 616.864 137.432C616.315 136.845 615.591 136.551 614.691 136.551C614.085 136.551 613.55 136.698 613.086 136.991C612.622 137.276 612.257 137.683 611.992 138.213C611.737 138.743 611.609 139.368 611.609 140.088V153H604.663ZM651.893 153.412C649.611 153.412 647.641 152.962 645.984 152.062C644.336 151.153 643.067 149.861 642.177 148.185C641.296 146.499 640.856 144.496 640.856 142.176C640.856 139.922 641.301 137.953 642.191 136.267C643.081 134.572 644.336 133.256 645.955 132.318C647.575 131.371 649.483 130.898 651.68 130.898C653.233 130.898 654.653 131.139 655.941 131.622C657.229 132.105 658.342 132.82 659.279 133.767C660.217 134.714 660.946 135.884 661.467 137.276C661.987 138.658 662.248 140.244 662.248 142.034V143.767H643.285V139.733H655.785C655.775 138.994 655.6 138.336 655.259 137.759C654.918 137.181 654.45 136.731 653.853 136.409C653.266 136.078 652.589 135.912 651.822 135.912C651.045 135.912 650.349 136.087 649.734 136.438C649.118 136.778 648.63 137.247 648.271 137.844C647.911 138.431 647.721 139.098 647.702 139.847V143.952C647.702 144.842 647.878 145.623 648.228 146.295C648.578 146.958 649.076 147.474 649.719 147.844C650.363 148.213 651.13 148.398 652.021 148.398C652.636 148.398 653.195 148.312 653.697 148.142C654.199 147.972 654.629 147.721 654.989 147.389C655.349 147.058 655.619 146.651 655.799 146.168L662.177 146.352C661.912 147.782 661.329 149.027 660.43 150.088C659.54 151.139 658.37 151.958 656.921 152.545C655.472 153.123 653.796 153.412 651.893 153.412ZM674.389 153V131.182H681.335V153H674.389ZM677.869 128.639C676.894 128.639 676.056 128.317 675.355 127.673C674.654 127.02 674.304 126.234 674.304 125.315C674.304 124.406 674.654 123.63 675.355 122.986C676.056 122.332 676.894 122.006 677.869 122.006C678.854 122.006 679.692 122.332 680.384 122.986C681.084 123.63 681.435 124.406 681.435 125.315C681.435 126.234 681.084 127.02 680.384 127.673C679.692 128.317 678.854 128.639 677.869 128.639ZM704.805 137.844L698.427 138.014C698.361 137.56 698.181 137.157 697.887 136.807C697.594 136.447 697.21 136.168 696.737 135.969C696.272 135.76 695.733 135.656 695.117 135.656C694.312 135.656 693.626 135.817 693.058 136.139C692.499 136.461 692.224 136.897 692.234 137.446C692.224 137.872 692.395 138.241 692.745 138.554C693.105 138.866 693.744 139.117 694.663 139.307L698.867 140.102C701.045 140.519 702.665 141.21 703.725 142.176C704.795 143.142 705.335 144.42 705.344 146.011C705.335 147.508 704.89 148.81 704.009 149.918C703.138 151.026 701.945 151.887 700.43 152.503C698.915 153.109 697.182 153.412 695.231 153.412C692.115 153.412 689.658 152.773 687.859 151.494C686.069 150.206 685.046 148.483 684.79 146.324L691.651 146.153C691.803 146.949 692.196 147.555 692.83 147.972C693.465 148.388 694.274 148.597 695.259 148.597C696.149 148.597 696.874 148.431 697.433 148.099C697.991 147.768 698.275 147.328 698.285 146.778C698.275 146.286 698.058 145.893 697.631 145.599C697.205 145.296 696.538 145.06 695.629 144.889L691.822 144.165C689.634 143.767 688.005 143.033 686.935 141.963C685.865 140.884 685.335 139.51 685.344 137.844C685.335 136.385 685.723 135.14 686.509 134.108C687.295 133.066 688.413 132.271 689.862 131.722C691.31 131.172 693.02 130.898 694.989 130.898C697.944 130.898 700.273 131.518 701.978 132.759C703.683 133.99 704.625 135.685 704.805 137.844Z" fill="white"/>
<path d="M717.358 153V123.909H724.389V136.21H724.773L734.389 123.909H742.67L732.358 136.892L742.855 153H734.446L727.202 141.565L724.389 145.116V153H717.358ZM758.153 143.582V131.182H765.085V153H758.466V148.938H758.239C757.756 150.273 756.932 151.333 755.767 152.119C754.612 152.896 753.215 153.284 751.577 153.284C750.09 153.284 748.783 152.943 747.656 152.261C746.529 151.58 745.653 150.628 745.028 149.406C744.403 148.175 744.086 146.736 744.077 145.088V131.182H751.023V143.724C751.032 144.908 751.345 145.841 751.96 146.523C752.576 147.205 753.414 147.545 754.474 147.545C755.166 147.545 755.786 147.394 756.335 147.091C756.894 146.778 757.334 146.329 757.656 145.741C757.988 145.145 758.153 144.425 758.153 143.582ZM794.265 123.909V153H788.299L776.722 136.21H776.538V153H769.506V123.909H775.558L787.006 140.67H787.248V123.909H794.265ZM808.885 153.412C806.603 153.412 804.633 152.962 802.976 152.062C801.328 151.153 800.059 149.861 799.169 148.185C798.288 146.499 797.848 144.496 797.848 142.176C797.848 139.922 798.293 137.953 799.183 136.267C800.073 134.572 801.328 133.256 802.947 132.318C804.567 131.371 806.475 130.898 808.672 130.898C810.225 130.898 811.645 131.139 812.933 131.622C814.221 132.105 815.334 132.82 816.271 133.767C817.209 134.714 817.938 135.884 818.459 137.276C818.98 138.658 819.24 140.244 819.24 142.034V143.767H800.277V139.733H812.777C812.768 138.994 812.592 138.336 812.251 137.759C811.911 137.181 811.442 136.731 810.845 136.409C810.258 136.078 809.581 135.912 808.814 135.912C808.037 135.912 807.341 136.087 806.726 136.438C806.11 136.778 805.623 137.247 805.263 137.844C804.903 138.431 804.714 139.098 804.695 139.847V143.952C804.695 144.842 804.87 145.623 805.22 146.295C805.571 146.958 806.068 147.474 806.712 147.844C807.356 148.213 808.123 148.398 809.013 148.398C809.628 148.398 810.187 148.312 810.689 148.142C811.191 147.972 811.622 147.721 811.982 147.389C812.341 147.058 812.611 146.651 812.791 146.168L819.169 146.352C818.904 147.782 818.321 149.027 817.422 150.088C816.532 151.139 815.362 151.958 813.913 152.545C812.464 153.123 810.788 153.412 808.885 153.412ZM835.103 131.182V136.295H821.339V131.182H835.103ZM824.222 125.955H831.168V146.139C831.168 146.565 831.235 146.911 831.367 147.176C831.509 147.432 831.713 147.616 831.978 147.73C832.243 147.834 832.56 147.886 832.93 147.886C833.195 147.886 833.474 147.863 833.768 147.815C834.071 147.759 834.298 147.711 834.45 147.673L835.501 152.688C835.169 152.782 834.701 152.901 834.094 153.043C833.498 153.185 832.783 153.275 831.95 153.312C830.321 153.388 828.924 153.199 827.759 152.744C826.604 152.28 825.719 151.561 825.103 150.585C824.497 149.61 824.203 148.384 824.222 146.906V125.955Z" fill="url(#paint1_linear_115_2)"/>
<path d="M737.531 -56.384L1087.02 21.4827" stroke="#272727"/>
<path d="M712.35 -37.4171L1061.83 40.4496" stroke="#272727"/>
<path d="M687.167 -18.4501L1036.65 59.4167" stroke="#272727"/>
<path d="M661.985 0.516983L1011.47 78.3837" stroke="#272727"/>
<path d="M713.185 124.204C713.105 119.933 713.105 119.933 709.834 117.185C714.105 117.105 714.105 117.105 716.853 113.834C716.933 118.105 716.933 118.105 720.204 120.853C715.933 120.933 715.933 120.933 713.185 124.204Z" fill="#EBFF6D"/>
<path d="M835.19 161.256C832.312 158.098 832.312 158.098 828.041 158.19C831.199 155.312 831.199 155.312 831.107 151.041C833.985 154.199 833.985 154.199 838.256 154.107C835.098 156.985 835.098 156.985 835.19 161.256Z" fill="#EBFF6D"/>
<path d="M264 38C264 37.4477 263.552 37 263 37C262.448 37 262 37.4477 262 38L264 38ZM262 38L262 188L264 188L264 38L262 38Z" fill="#272727"/>
</g>
<defs>
<linearGradient id="paint0_linear_115_2" x1="837" y1="158.5" x2="730" y2="160" gradientUnits="userSpaceOnUse">
<stop stop-color="#2F83A6"/>
<stop offset="1" stop-color="#B556FF"/>
</linearGradient>
<linearGradient id="paint1_linear_115_2" x1="842" y1="123" x2="714.5" y2="162" gradientUnits="userSpaceOnUse">
<stop stop-color="#9175FF"/>
<stop offset="1" stop-color="#DB8FFF"/>
</linearGradient>
<clipPath id="clip0_115_2">
<rect width="992" height="226" rx="24" fill="white"/>
</clipPath>
<clipPath id="clip1_115_2">
<rect width="256" height="256" fill="white" transform="translate(4 -10)"/>
</clipPath>
</defs>
</svg>
